# Blender 4.0.2
# www.blender.org
o Cube
v -1.000000 1.000000 1.000000
v -1.000000 -1.000000 1.000000
v -1.000000 1.000000 -1.000000
v -1.000000 -1.000000 -1.000000
v 1.000000 1.000000 1.000000
v 1.000000 -1.000000 1.000000
v 1.000000 1.000000 -1.000000
v 1.000000 -1.000000 -1.000000
vn -0.0000 1.0000 -0.0000
vn -0.0000 -0.0000 -1.0000
vn 1.0000 -0.0000 -0.0000
vn -0.0000 -1.0000 -0.0000
vn -1.0000 -0.0000 -0.0000
vn -0.0000 -0.0000 1.0000
vt 0.999300 0.000000
vt 0.000000 0.999300
vt 0.000000 0.000000
vt 1.000341 0.000000
vt 0.000000 1.000341
vt 1.000323 0.000000
vt 0.000000 1.000323
vt 0.999815 -0.000000
vt 0.000000 0.999815
vt 0.000000 -0.000000
vt 1.000157 0.000000
vt 0.000000 1.000157
vt 0.999039 0.000000
vt 0.000000 0.999039
vt 0.999300 0.999300
vt 1.000341 1.000341
vt 1.000323 1.000323
vt 0.999815 0.999815
vt 1.000157 1.000157
vt 0.999039 0.999039
s 0
f 5/1/1 3/2/1 1/3/1
f 3/4/2 8/5/2 4/3/2
f 7/6/3 6/7/3 8/3/3
f 2/8/4 8/9/4 6/10/4
f 1/11/5 4/12/5 2/3/5
f 5/13/6 2/14/6 6/3/6
f 5/1/1 7/15/1 3/2/1
f 3/4/2 7/16/2 8/5/2
f 7/6/3 5/17/3 6/7/3
f 2/8/4 4/18/4 8/9/4
f 1/11/5 3/19/5 4/12/5
f 5/13/6 1/20/6 2/14/6
